<?xml version="1.0" encoding="utf-8"?>
<!-- Generator: Adobe Illustrator 25.0.1, SVG Export Plug-In . SVG Version: 6.00 Build 0)  -->
<svg version="1.0" id="Layer_1" xmlns="http://www.w3.org/2000/svg" xmlns:xlink="http://www.w3.org/1999/xlink" x="0px" y="0px"
	 viewBox="0 0 534.7 379.9" style="enable-background:new 0 0 534.7 379.9;" xml:space="preserve">
<style type="text/css">
	.st0{opacity:0.54;}
	.st1{fill:#01579B;}
	.st2{fill:#40C4FF;}
	.st3{fill:#29B6F6;}
	.st4{opacity:0.2;fill:#FFFFFF;enable-background:new    ;}
	.st5{opacity:0.2;fill:#263238;enable-background:new    ;}
	.st6{opacity:0.2;fill:url(#SVGID_1_);enable-background:new    ;}
</style>
<g>
	<g class="st0">
		<path d="M254.9,141.5h27.6c9.4,0,17.5,1.9,24.5,5.8c7,3.9,12.3,9.2,16.1,16.1c3.7,6.9,5.6,14.8,5.6,23.7c0,8.9-1.9,16.8-5.6,23.7
			c-3.7,6.9-9.1,12.3-16.1,16.1s-15.1,5.8-24.5,5.8h-27.6L254.9,141.5L254.9,141.5z M282.5,222.5c10.8,0,19.4-3.1,25.7-9.3
			c6.3-6.2,9.5-14.9,9.5-26s-3.2-19.8-9.5-26c-6.3-6.2-14.9-9.3-25.7-9.3h-16.8v70.7L282.5,222.5L282.5,222.5z"/>
		<path d="M345.4,232.1c-3.7-1.9-6.6-4.4-8.7-7.7c-2-3.3-3.1-7-3.1-11.2c0-6.9,2.6-12.3,7.8-16.1c5.2-3.9,11.7-5.8,19.6-5.8
			c3.9,0,7.5,0.4,10.9,1.3c3.4,0.9,5.9,1.8,7.7,2.9v-3.9c0-4.9-1.7-8.7-5.1-11.7s-7.7-4.4-12.9-4.4c-3.7,0-7,0.8-10.1,2.4
			c-3.1,1.6-5.5,3.8-7.3,6.6l-8.2-6.1c2.5-3.9,6.1-7,10.5-9.2c4.5-2.2,9.4-3.3,14.9-3.3c8.8,0,15.8,2.3,20.9,6.9
			c5.1,4.6,7.6,10.9,7.6,18.9v41.2h-10.3v-9.3h-0.5c-1.9,3.1-4.7,5.8-8.4,8c-3.7,2.2-8,3.3-12.6,3.3
			C353.4,234.9,349.1,233.9,345.4,232.1z M369.3,222.5c3.1-1.9,5.6-4.4,7.5-7.5c1.9-3.1,2.8-6.6,2.8-10.3c-2-1.4-4.5-2.5-7.5-3.3
			c-3-0.9-6.1-1.3-9.4-1.3c-6,0-10.4,1.2-13.5,3.7c-3,2.5-4.5,5.7-4.5,9.6c0,3.6,1.4,6.5,4.1,8.7s6.2,3.3,10.3,3.3
			C362.8,225.3,366.2,224.4,369.3,222.5z"/>
		<path d="M401.4,168.8h10.3v10.3h0.5c1.5-3.8,4.1-6.8,7.8-8.9c3.6-2.1,7.6-3.2,12-3.2c1.9,0,3.4,0.1,4.7,0.4v11.1
			c-1.5-0.3-3.4-0.5-5.9-0.5c-5.5,0-10,1.8-13.5,5.5c-3.4,3.7-5.2,8.4-5.2,14.3v36.1h-10.8L401.4,168.8L401.4,168.8z M468.8,233.6
			c-2.2-0.9-4.1-2-5.7-3.5c-1.7-1.6-3-3.6-3.8-5.7c-0.9-2.2-1.3-4.8-1.3-7.9v-38.8h-11.4v-9.8H458v-18.4h10.8v18.4h15.8v9.8h-15.8
			v36.2c0,3.7,0.7,6.3,2,8.1c1.6,1.9,4,2.9,7,2.9c2.5,0,4.9-0.7,7.1-2.2v10.6c-1.3,0.6-2.6,1-3.9,1.3s-3,0.4-5,0.4
			C473.5,234.9,471,234.4,468.8,233.6z"/>
	</g>
	<g>
		<path class="st1" d="M77.5,230.2L54.2,207c-2.8-2.8-4.5-6.8-4.5-10.8c0-1.8,1-4.6,1.8-6.3L73,145.2L77.5,230.2z"/>
		<path class="st2" d="M157.2,149.7l-23.3-23.3c-2-2-6.3-4.5-9.8-4.5c-3.1,0-6.1,0.6-8.1,1.8l-43,21.5L157.2,149.7z"/>
		<polygon class="st2" points="105.3,258 161.7,258 161.7,233.8 119.6,220.4 81.1,233.8 		"/>
		<path class="st3" d="M73,217.7c0,7.2,0.9,8.9,4.5,12.5l3.6,3.6h80.6l-39.4-44.8L73,145.2V217.7z"/>
		<path class="st1" d="M144.7,145.2H73l88.6,88.7h24.2v-55.5l-28.6-28.6C153.2,145.6,149.6,145.2,144.7,145.2z"/>
		<path class="st4" d="M78.4,231.1c-3.6-3.6-4.5-7.1-4.5-13.4v-71.6l-0.9-0.9v72.5C73,224,73,225.7,78.4,231.1l2.7,2.7l0,0
			L78.4,231.1z"/>
		<polygon class="st5" points="185,177.4 185,232.9 160.8,232.9 161.7,233.8 185.9,233.8 185.9,178.3 		"/>
		<path class="st4" d="M157.2,149.7c-4.4-4.4-8.1-4.5-13.4-4.5H73l0.9,0.9h69.8C146.4,146.1,153.2,145.6,157.2,149.7L157.2,149.7z"
			/>
		
			<radialGradient id="SVGID_1_" cx="117.8299" cy="660.4172" r="68.065" gradientTransform="matrix(1 0 0 1 0 -470.4672)" gradientUnits="userSpaceOnUse">
			<stop  offset="0" style="stop-color:#FFFFFF;stop-opacity:0.1"/>
			<stop  offset="1" style="stop-color:#FFFFFF;stop-opacity:0"/>
		</radialGradient>
		<path class="st6" d="M185,177.4l-27.8-27.8l-23.3-23.3c-2-2-6.3-4.5-9.8-4.5c-3.1,0-6.1,0.6-8.1,1.8l-43,21.5l-21.5,44.8
			c-0.8,1.6-1.8,4.5-1.8,6.3c0,3.9,1.7,7.9,4.5,10.8l21.5,21.3c0.5,0.6,1.1,1.3,1.8,2l0.9,0.9l2.7,2.7l23.3,23.3l0.9,0.9h55.5h0.9
			v-24.2h24.2v-0.1v-55.5L185,177.4z"/>
	</g>
</g>
</svg>
